<svg width="37" height="31" viewBox="0 0 37 31" fill="none" xmlns="http://www.w3.org/2000/svg">
<g id="send (2) 1">
<path id="Vector" d="M36.5377 1.68757C37.232 2.89014 37.139 4.32208 36.2939 5.42421L17.7407 29.635C16.9755 30.6334 15.7156 31.1424 14.4274 30.8951C13.1658 30.6525 12.1655 29.7329 11.8184 28.496L9.07315 18.7256L8.78724 17.7093L8.05009 16.9536L0.961299 9.69096C0.0637139 8.77192 -0.232544 7.44585 0.188115 6.23199C0.604446 5.03206 1.64864 4.16136 2.93604 3.99264L33.1798 0.0304539C34.5568 -0.15031 35.8435 0.48506 36.5377 1.68757Z" fill="white"/>
<path id="Vector_2" d="M9.07319 18.7254L11.8184 28.4958C12.1655 29.7327 13.1658 30.6522 14.4274 30.8949C15.7157 31.1423 16.9755 30.6333 17.7406 29.6348L36.2939 5.42402C37.1389 4.32188 37.232 2.88995 36.5377 1.68738L8.78728 17.7091L9.07319 18.7254Z" fill="white"/>
<path id="Vector_3" d="M20.0799 11.1894C20.3622 11.6784 20.1951 12.3042 19.7054 12.5869L9.07316 18.7255L8.78725 17.7092L8.0501 16.9535L18.6823 10.8149C19.172 10.5323 19.7975 10.7004 20.0799 11.1894Z" fill="url(#paint0_linear_1_491)"/>
<path id="Vector_4" d="M9.07334 18.7256L19.7056 12.587C20.1952 12.3044 20.3624 11.6786 20.0801 11.1895L8.78743 17.7093L9.07334 18.7256Z" fill="url(#paint1_linear_1_491)"/>
</g>
<defs>
<linearGradient id="paint0_linear_1_491" x1="16.248" y1="12.2867" x2="17.3904" y2="14.5775" gradientUnits="userSpaceOnUse">
<stop stop-color="#747DEF"/>
<stop offset="1" stop-color="#5E3BE1"/>
</linearGradient>
<linearGradient id="paint1_linear_1_491" x1="16.7454" y1="13.148" x2="17.352" y2="14.277" gradientUnits="userSpaceOnUse">
<stop stop-color="#747DEF"/>
<stop offset="1" stop-color="#5E3BE1"/>
</linearGradient>
</defs>
</svg>
