<svg width="62" height="62" viewBox="0 0 62 62" fill="none" xmlns="http://www.w3.org/2000/svg">
<g id="Group 600">
<circle id="Ellipse 34" cx="31" cy="31" r="31" fill="#F8931A"/>
<path id="Vector" d="M30.75 49.95C30.9167 49.95 31.1083 49.9083 31.325 49.825C31.5417 49.7417 31.7167 49.6333 31.85 49.5L48.7 32.6C49.1333 32.1667 49.4583 31.6722 49.675 31.1165C49.8917 30.5612 50 30.0057 50 29.45C50 28.8833 49.8917 28.3167 49.675 27.75C49.4583 27.1833 49.1333 26.6833 48.7 26.25L39.7 17.25C39.2667 16.8167 38.7667 16.4917 38.2 16.275C37.6333 16.0583 37.0667 15.95 36.5 15.95C35.9443 15.95 35.3888 16.0583 34.8335 16.275C34.2778 16.4917 33.7833 16.8167 33.35 17.25L32.45 18.15L36.5 22.25C36.9333 22.7167 37.3167 23.2583 37.65 23.875C37.9833 24.4917 38.15 25.1667 38.15 25.9C38.15 27.1667 37.6583 28.2833 36.675 29.25C35.6917 30.2167 34.5667 30.7 33.3 30.7C32.4667 30.7 31.775 30.575 31.225 30.325C30.675 30.075 30.1718 29.7193 29.7155 29.258L26.05 25.6L17 34.65C16.8333 34.8167 16.7167 34.9922 16.65 35.1765C16.5833 35.3605 16.55 35.5578 16.55 35.7685C16.55 36.1895 16.6917 36.5417 16.975 36.825C17.2583 37.1083 17.6112 37.25 18.0335 37.25C18.2445 37.25 18.4417 37.2 18.625 37.1C18.8083 37 18.9667 36.8833 19.1 36.75L26 29.85L28.1 31.95L21.25 38.8C21.0833 38.9667 20.9667 39.15 20.9 39.35C20.8333 39.55 20.8 39.75 20.8 39.95C20.8 40.35 20.95 40.7 21.25 41C21.55 41.3 21.9 41.45 22.3 41.45C22.5 41.45 22.6917 41.4083 22.875 41.325C23.0583 41.2417 23.2167 41.1333 23.35 41L30.25 34.1L32.35 36.2L25.5 43.05C25.3667 43.1833 25.2583 43.3555 25.175 43.5665C25.0917 43.7778 25.05 43.989 25.05 44.2C25.05 44.6 25.2 44.95 25.5 45.25C25.8 45.55 26.15 45.7 26.55 45.7C26.75 45.7 26.9333 45.6667 27.1 45.6C27.2667 45.5333 27.4333 45.4167 27.6 45.25L34.5 38.35L36.6 40.45L29.7 47.35C29.5333 47.5167 29.4167 47.7 29.35 47.9C29.2833 48.1 29.25 48.2833 29.25 48.45C29.25 48.9167 29.3833 49.2833 29.65 49.55C29.9167 49.8167 30.2833 49.95 30.75 49.95ZM30.753 52.95C29.651 52.95 28.6667 52.5417 27.8 51.725C26.9333 50.9083 26.4167 49.898 26.25 48.694C25.1167 48.5313 24.1667 48.0667 23.4 47.3C22.6333 46.5333 22.1667 45.5833 22 44.45C20.8667 44.2833 19.925 43.8083 19.175 43.025C18.425 42.2417 17.9667 41.3 17.8 40.2C16.5667 40.0333 15.55 39.5333 14.75 38.7C13.95 37.8667 13.55 36.8667 13.55 35.7C13.55 35.1333 13.662 34.5658 13.886 33.9975C14.1103 33.4292 14.4317 32.93 14.85 32.5L26.05 21.3L31.55 26.8C31.8167 27.0667 32.1055 27.275 32.4165 27.425C32.7278 27.575 33.039 27.65 33.35 27.65C33.7833 27.65 34.1917 27.4583 34.575 27.075C34.9583 26.6917 35.15 26.2808 35.15 25.8425C35.15 25.6475 35.0917 25.425 34.975 25.175C34.8583 24.925 34.6667 24.6667 34.4 24.4L27.25 17.25C26.8167 16.8167 26.3167 16.4917 25.75 16.275C25.1833 16.0583 24.6167 15.95 24.05 15.95C23.4943 15.95 22.9388 16.0583 22.3835 16.275C21.8278 16.4917 21.3343 16.8143 20.903 17.243L13.3 24.85C12.8333 25.3167 12.5083 25.8083 12.325 26.325C12.1417 26.8417 12.0333 27.425 12 28.075C11.9667 28.725 12.0917 29.3583 12.375 29.975C12.6583 30.5917 13 31.15 13.4 31.65L11.25 33.8C10.5833 33.0667 10.0417 32.1833 9.625 31.15C9.20833 30.1167 9 29.0667 9 28C9 27 9.19167 26.0417 9.575 25.125C9.95833 24.2083 10.5 23.4 11.2 22.7L18.75 15.15C19.4833 14.4167 20.3132 13.875 21.2395 13.525C22.1662 13.175 23.1162 13 24.0895 13C25.0632 13 26.0083 13.175 26.925 13.525C27.8417 13.875 28.6667 14.4167 29.4 15.15L30.3 16.05L31.2 15.15C31.9333 14.4167 32.7632 13.875 33.6895 13.525C34.6162 13.175 35.5662 13 36.5395 13C37.5132 13 38.4583 13.175 39.375 13.525C40.2917 13.875 41.1167 14.4167 41.85 15.15L50.8 24.1C51.5333 24.8333 52.0833 25.6672 52.45 26.6015C52.8167 27.5362 53 28.4862 53 29.4515C53 30.4172 52.8167 31.3583 52.45 32.275C52.0833 33.1917 51.5333 34.0167 50.8 34.75L33.95 51.6C33.5167 52.0333 33.0245 52.3667 32.4735 52.6C31.9225 52.8333 31.349 52.95 30.753 52.95Z" fill="white"/>
</g>
</svg>
