<svg width="62" height="62" viewBox="0 0 62 62" fill="none" xmlns="http://www.w3.org/2000/svg">
<g id="Group 599">
<circle id="Ellipse 35" cx="31" cy="31" r="31" fill="#F8931A"/>
<path id="Vector" d="M29 48V45H46V29.8C46 25.677 44.5447 22.1797 41.634 19.308C38.7233 16.436 35.1787 15 31 15C26.8213 15 23.2767 16.436 20.366 19.308C17.4553 22.1797 16 25.677 16 29.8V42H15C13.9 42 12.9583 41.6083 12.175 40.825C11.3917 40.0417 11 39.1 11 38V34C11 33.3 11.175 32.6417 11.525 32.025C11.875 31.4083 12.3667 30.9167 13 30.55L13.15 27.9C13.4167 25.6333 14.075 23.5333 15.125 21.6C16.175 19.6667 17.4917 17.9833 19.075 16.55C20.6583 15.1167 22.475 14 24.525 13.2C26.575 12.4 28.7333 12 31 12C33.2667 12 35.4167 12.4 37.45 13.2C39.4833 14 41.3 15.1083 42.9 16.525C44.5 17.9417 45.8167 19.6167 46.85 21.55C47.8833 23.4833 48.55 25.5833 48.85 27.85L49 30.45C49.6333 30.75 50.125 31.2 50.475 31.8C50.825 32.4 51 33.0333 51 33.7V38.3C51 38.9667 50.825 39.6 50.475 40.2C50.125 40.8 49.6333 41.25 49 41.55V45C49 45.825 48.7063 46.5312 48.119 47.1185C47.5313 47.7062 46.825 48 46 48H29ZM24.991 33.5C24.5637 33.5 24.2083 33.3553 23.925 33.066C23.6417 32.777 23.5 32.4187 23.5 31.991C23.5 31.5637 23.6447 31.2083 23.934 30.925C24.223 30.6417 24.5813 30.5 25.009 30.5C25.4363 30.5 25.7917 30.6447 26.075 30.934C26.3583 31.223 26.5 31.5813 26.5 32.009C26.5 32.4363 26.3553 32.7917 26.066 33.075C25.777 33.3583 25.4187 33.5 24.991 33.5ZM36.991 33.5C36.5637 33.5 36.2083 33.3553 35.925 33.066C35.6417 32.777 35.5 32.4187 35.5 31.991C35.5 31.5637 35.6447 31.2083 35.934 30.925C36.223 30.6417 36.5813 30.5 37.009 30.5C37.4363 30.5 37.7917 30.6447 38.075 30.934C38.3583 31.223 38.5 31.5813 38.5 32.009C38.5 32.4363 38.3553 32.7917 38.066 33.075C37.777 33.3583 37.4187 33.5 36.991 33.5ZM19.05 30.9C18.8167 27.3667 19.8833 24.3333 22.25 21.8C24.6167 19.2667 27.5667 18 31.1 18C34 18 36.5167 18.9583 38.65 20.875C40.7833 22.7917 42.0833 25.1833 42.55 28.05C39.5833 28.0167 36.875 27.1833 34.425 25.55C31.975 23.9167 30.0787 21.7667 28.736 19.1C28.212 21.7667 27.0917 24.1417 25.375 26.225C23.6583 28.3083 21.55 29.8667 19.05 30.9Z" fill="white"/>
</g>
</svg>
