<svg width="62" height="62" viewBox="0 0 62 62" fill="none" xmlns="http://www.w3.org/2000/svg">
<g id="Group 597">
<circle id="Ellipse 32" cx="31" cy="31" r="31" fill="#F8931A"/>
<path id="Vector" d="M24.3 52L20.5 45.5L12.95 43.95L13.8 36.6L9 31L13.8 25.45L12.95 18.1L20.5 16.55L24.3 10L31 13.1L37.7 10L41.55 16.55L49.05 18.1L48.2 25.45L53 31L48.2 36.6L49.05 43.95L41.55 45.5L37.7 52L31 48.9L24.3 52ZM25.65 48.05L31 45.8L36.5 48.05L39.85 43.05L45.7 41.55L45.1 35.6L49.15 31L45.1 26.3L45.7 20.35L39.85 18.95L36.4 13.95L31 16.2L25.5 13.95L22.15 18.95L16.3 20.35L16.9 26.3L12.85 31L16.9 35.6L16.3 41.65L22.15 43.05L25.65 48.05ZM28.85 37.65L40.2 26.4L37.95 24.35L28.85 33.35L24.1 28.4L21.8 30.65L28.85 37.65Z" fill="white"/>
</g>
</svg>
