<svg width="113" height="126" viewBox="0 0 113 126" fill="none" xmlns="http://www.w3.org/2000/svg">
<path id="Vector" opacity="0.07" d="M9.41667 125.131C6.90556 125.131 4.70833 124.192 2.825 122.315C0.941667 120.438 0 118.249 0 115.746V18.7696C0 16.267 0.941667 14.0772 2.825 12.2003C4.70833 10.3233 6.90556 9.38482 9.41667 9.38482H19.6181V0H29.8194V9.38482H83.1805V0H93.3819V9.38482H103.583C106.094 9.38482 108.292 10.3233 110.175 12.2003C112.058 14.0772 113 16.267 113 18.7696V115.746C113 118.249 112.058 120.438 110.175 122.315C108.292 124.192 106.094 125.131 103.583 125.131H9.41667ZM9.41667 115.746H103.583V48.4882H9.41667V115.746ZM9.41667 39.1034H103.583V18.7696H9.41667V39.1034ZM56.5 75.0785C54.7213 75.0785 53.2303 74.4789 52.0271 73.2798C50.8238 72.0806 50.2222 70.5947 50.2222 68.822C50.2222 67.0493 50.8238 65.5634 52.0271 64.3642C53.2303 63.165 54.7213 62.5654 56.5 62.5654C58.2787 62.5654 59.7697 63.165 60.9729 64.3642C62.1762 65.5634 62.7778 67.0493 62.7778 68.822C62.7778 70.5947 62.1762 72.0806 60.9729 73.2798C59.7697 74.4789 58.2787 75.0785 56.5 75.0785ZM31.3889 75.0785C29.6102 75.0785 28.1192 74.4789 26.916 73.2798C25.7127 72.0806 25.1111 70.5947 25.1111 68.822C25.1111 67.0493 25.7127 65.5634 26.916 64.3642C28.1192 63.165 29.6102 62.5654 31.3889 62.5654C33.1676 62.5654 34.6586 63.165 35.8618 64.3642C37.065 65.5634 37.6667 67.0493 37.6667 68.822C37.6667 70.5947 37.065 72.0806 35.8618 73.2798C34.6586 74.4789 33.1676 75.0785 31.3889 75.0785ZM81.6111 75.0785C79.8324 75.0785 78.3414 74.4789 77.1382 73.2798C75.935 72.0806 75.3333 70.5947 75.3333 68.822C75.3333 67.0493 75.935 65.5634 77.1382 64.3642C78.3414 63.165 79.8324 62.5654 81.6111 62.5654C83.3898 62.5654 84.8808 63.165 86.084 64.3642C87.2873 65.5634 87.8889 67.0493 87.8889 68.822C87.8889 70.5947 87.2873 72.0806 86.084 73.2798C84.8808 74.4789 83.3898 75.0785 81.6111 75.0785ZM56.5 100.105C54.7213 100.105 53.2303 99.5051 52.0271 98.3059C50.8238 97.1068 50.2222 95.6208 50.2222 93.8482C50.2222 92.0755 50.8238 90.5895 52.0271 89.3904C53.2303 88.1912 54.7213 87.5916 56.5 87.5916C58.2787 87.5916 59.7697 88.1912 60.9729 89.3904C62.1762 90.5895 62.7778 92.0755 62.7778 93.8482C62.7778 95.6208 62.1762 97.1068 60.9729 98.3059C59.7697 99.5051 58.2787 100.105 56.5 100.105ZM31.3889 100.105C29.6102 100.105 28.1192 99.5051 26.916 98.3059C25.7127 97.1068 25.1111 95.6208 25.1111 93.8482C25.1111 92.0755 25.7127 90.5895 26.916 89.3904C28.1192 88.1912 29.6102 87.5916 31.3889 87.5916C33.1676 87.5916 34.6586 88.1912 35.8618 89.3904C37.065 90.5895 37.6667 92.0755 37.6667 93.8482C37.6667 95.6208 37.065 97.1068 35.8618 98.3059C34.6586 99.5051 33.1676 100.105 31.3889 100.105ZM81.6111 100.105C79.8324 100.105 78.3414 99.5051 77.1382 98.3059C75.935 97.1068 75.3333 95.6208 75.3333 93.8482C75.3333 92.0755 75.935 90.5895 77.1382 89.3904C78.3414 88.1912 79.8324 87.5916 81.6111 87.5916C83.3898 87.5916 84.8808 88.1912 86.084 89.3904C87.2873 90.5895 87.8889 92.0755 87.8889 93.8482C87.8889 95.6208 87.2873 97.1068 86.084 98.3059C84.8808 99.5051 83.3898 100.105 81.6111 100.105Z" fill="#0052FF"/>
</svg>
