<svg width="120" height="120" viewBox="0 0 120 120" fill="none" xmlns="http://www.w3.org/2000/svg">
<path id="Vector" opacity="0.07" d="M66.4419 91.9116L87.3468 71.0565C88.4414 69.9641 89.2384 68.7525 89.7378 67.4217C90.2372 66.09 90.4869 64.6698 90.4869 63.1613C90.4869 59.9903 89.3613 57.2861 87.1101 55.0486C84.8599 52.8102 82.1403 51.691 78.9513 51.691C76.9178 51.691 74.9114 52.3365 72.9318 53.6275C70.9523 54.9186 68.764 57.0041 66.367 59.8841C63.97 57.0041 61.8082 54.9186 59.8816 53.6275C57.9551 52.3365 55.972 51.691 53.9326 51.691C50.7436 51.691 48.024 52.8102 45.7738 55.0486C43.5226 57.2861 42.397 59.9903 42.397 63.1613C42.397 64.6698 42.6467 66.09 43.1461 67.4217C43.6454 68.7525 44.4424 69.9641 45.5371 71.0565L66.4419 91.9116ZM117.303 70.9075L71.4607 116.64C70.5618 117.484 69.5506 118.117 68.427 118.539C67.3034 118.961 66.1798 119.172 65.0562 119.172C63.9326 119.172 62.8215 118.949 61.7228 118.502C60.6242 118.055 59.6255 117.434 58.7266 116.64L2.69663 60.7779C1.89763 59.9834 1.24844 59.0419 0.749064 57.9535C0.249688 56.866 0 55.722 0 54.5213V8.93792C0 6.47999 0.880399 4.37561 2.6412 2.62477C4.401 0.874922 6.51685 0 8.98876 0H54.9813C56.1868 0 57.3548 0.24182 58.4854 0.72546C59.615 1.21009 60.5943 1.86207 61.4232 2.68138L117.303 58.2454C118.241 59.1392 118.925 60.1448 119.356 61.262C119.785 62.3792 120 63.4965 120 64.6137C120 65.7309 119.775 66.8606 119.326 68.0027C118.876 69.1447 118.202 70.113 117.303 70.9075ZM65.3184 110.532L111.161 64.7999L54.9813 8.93792H8.98876V54.2234L65.3184 110.532ZM24.7191 32.1765C26.8165 32.1765 28.6392 31.4069 30.1873 29.8675C31.7353 28.3282 32.5094 26.5158 32.5094 24.4303C32.5094 22.3448 31.7353 20.5324 30.1873 18.9931C28.6392 17.4538 26.8165 16.6841 24.7191 16.6841C22.6217 16.6841 20.799 17.4538 19.2509 18.9931C17.7029 20.5324 16.9288 22.3448 16.9288 24.4303C16.9288 26.5158 17.7029 28.3282 19.2509 29.8675C20.799 31.4069 22.6217 32.1765 24.7191 32.1765Z" fill="#0052FF"/>
</svg>
